# xmcd CD database file
#
# Track frame offsets:
#	150
#	11175
#	21822
#	37235
#	49100
#	60202
#	77045
#	86642
#	100255
#	111467
#	122370
#	135012
#	147487
#	156375
#	171427
#	184440
#	196590
#
# Disc length: 2915 seconds
#
# Revision: 2
# Processed by: cddbd v1.5.2PL0 Copyright (c) Steve Scherf et al.
# Submitted via: CDex 1.51
#
DISCID=e60b6111
DTITLE=Clarence and Cal Green - Jumpin' Houston Guitarists Entry-1
DYEAR=1900
DGENRE=Blues
TTITLE0=Huffing And Puffing
TTITLE1=Fast Times In Houston
TTITLE2=Do It Now
TTITLE3=Mary My Darling
TTITLE4=Bossa Nova Walk
TTITLE5=Chenevert Street Shuffle
TTITLE6=Red Light
TTITLE7=Strolling
TTITLE8=Don't Let The Blues Get You
TTITLE9=I Know I Was Wrong
TTITLE10=Honky Tonk
TTITLE11=All That Slow Jazz Got Me Blue
TTITLE12=Just Keep It Up
TTITLE13=Blues All Night Long
TTITLE14=Good Thing Going
TTITLE15=Green's Rocket
TTITLE16=Sawdust Floor
EXTD=
EXTT0=
EXTT1=
EXTT2=
EXTT3=
EXTT4=
EXTT5=
EXTT6=
EXTT7=
EXTT8=
EXTT9=
EXTT10=
EXTT11=
EXTT12=
EXTT13=
EXTT14=
EXTT15=
EXTT16=
PLAYORDER=
